<svg width="33" height="33" viewBox="0 0 33 33" fill="none" xmlns="http://www.w3.org/2000/svg">
<g clip-path="url(#clip0_705_197)">
<path d="M16.6 7.6875C21.6327 7.6875 25.7125 11.7673 25.7125 16.8C25.7125 21.8327 21.6327 25.9125 16.6 25.9125C11.5674 25.9125 7.48755 21.8327 7.48755 16.8C7.48755 11.7673 11.5674 7.6875 16.6 7.6875Z" fill="url(#paint0_radial_705_197)"/>
<path d="M16.6001 27.4312C17.4389 27.4312 18.1188 28.1112 18.1188 28.95V30.4687C18.1188 31.3075 17.4389 31.9875 16.6001 31.9875C15.7613 31.9875 15.0813 31.3075 15.0813 30.4687V28.95C15.0813 28.1112 15.7613 27.4312 16.6001 27.4312ZM26.2654 24.3175L27.3393 25.3914C27.9324 25.9845 27.9324 26.946 27.3393 27.5392C26.7463 28.1323 25.7846 28.1323 25.1915 27.5392L24.1176 26.4653C23.5245 25.8721 23.5245 24.9106 24.1176 24.3175C24.7107 23.7243 25.6724 23.7243 26.2654 24.3175ZM6.93475 24.3175C7.52786 23.7243 8.48949 23.7243 9.08259 24.3175C9.63007 24.8649 9.67218 25.7265 9.20893 26.3222L9.08259 26.4653L8.00867 27.5392C7.41556 28.1323 6.45394 28.1323 5.86083 27.5392C5.31334 26.9918 5.27123 26.1302 5.73449 25.5345L5.86083 25.3914L6.93475 24.3175ZM4.4501 15.2812C5.28887 15.2812 5.96885 15.9612 5.96885 16.8C5.96885 17.5789 5.38254 18.2208 4.62721 18.3085L4.4501 18.3187H2.93135C2.09257 18.3187 1.4126 17.6388 1.4126 16.8C1.4126 16.0211 1.9989 15.3792 2.75423 15.2915L2.93135 15.2812H4.4501ZM30.2688 15.2812C31.1077 15.2812 31.7876 15.9612 31.7876 16.8C31.7876 17.6388 31.1077 18.3187 30.2688 18.3187H28.7501C27.9113 18.3187 27.2313 17.6388 27.2313 16.8C27.2313 15.9612 27.9113 15.2812 28.7501 15.2812H30.2688ZM5.86088 6.06072C6.40836 5.51325 7.26985 5.47113 7.86563 5.93438L8.00871 6.06072L9.08263 7.13465C9.67574 7.72775 9.67574 8.68938 9.08263 9.28248C8.53514 9.82996 7.67366 9.87207 7.07787 9.40882L6.93479 9.28248L5.86088 8.20856C5.26776 7.61545 5.26776 6.65383 5.86088 6.06072ZM27.3393 6.06075C27.9324 6.65386 27.9324 7.61548 27.3393 8.20859L26.2654 9.28251C25.6722 9.87561 24.7107 9.87561 24.1176 9.28251C23.5244 8.68939 23.5244 7.72778 24.1176 7.13467L25.1915 6.06075C25.7846 5.46764 26.7461 5.46764 27.3393 6.06075ZM16.6001 1.61249C17.4389 1.61249 18.1188 2.29246 18.1188 3.13124V4.64999C18.1188 5.48876 17.4389 6.16874 16.6001 6.16874C15.7613 6.16874 15.0813 5.48876 15.0813 4.64999V3.13124C15.0813 2.29246 15.7613 1.61249 16.6001 1.61249Z" fill="url(#paint1_linear_705_197)"/>
</g>
<defs>
<radialGradient id="paint0_radial_705_197" cx="0" cy="0" r="1" gradientUnits="userSpaceOnUse" gradientTransform="translate(10.2719 9.96562) rotate(43.0203) scale(21.118)">
<stop offset="0.193671" stop-color="#FFE475"/>
<stop offset="0.529275" stop-color="#FFB029"/>
<stop offset="0.780467" stop-color="#FF9100"/>
</radialGradient>
<linearGradient id="paint1_linear_705_197" x1="1.22275" y1="1.42264" x2="31.9774" y2="32.1773" gradientUnits="userSpaceOnUse">
<stop offset="0.166667" stop-color="#FFE475"/>
<stop offset="0.798611" stop-color="#FFBF29"/>
</linearGradient>
<clipPath id="clip0_705_197">
<rect width="32.4" height="32.4" fill="white" transform="translate(0.400146 0.599976)"/>
</clipPath>
</defs>
</svg>
