<svg width="145" height="145" viewBox="0 0 145 145" fill="none" xmlns="http://www.w3.org/2000/svg">
<g clip-path="url(#clip0_705_246)">
<path d="M72.2815 31.8C94.649 31.8 112.781 49.9324 112.781 72.3C112.781 94.6675 94.649 112.8 72.2815 112.8C49.914 112.8 31.7815 94.6675 31.7815 72.3C31.7815 49.9324 49.914 31.8 72.2815 31.8Z" fill="url(#paint0_radial_705_246)"/>
<path d="M72.2815 119.55C76.0095 119.55 79.0315 122.572 79.0315 126.3V133.05C79.0315 136.778 76.0095 139.8 72.2815 139.8C68.5535 139.8 65.5315 136.778 65.5315 133.05V126.3C65.5315 122.572 68.5535 119.55 72.2815 119.55ZM115.239 105.711L120.011 110.484C122.647 113.12 122.647 117.393 120.011 120.03C117.376 122.666 113.101 122.666 110.466 120.03L105.693 115.257C103.057 112.62 103.057 108.347 105.693 105.711C108.329 103.075 112.603 103.075 115.239 105.711ZM29.3244 105.711C31.9604 103.075 36.2343 103.075 38.8703 105.711C41.3036 108.144 41.4908 111.973 39.4319 114.621L38.8703 115.257L34.0974 120.03C31.4613 122.666 27.1874 122.666 24.5514 120.03C22.1181 117.597 21.931 113.768 23.9899 111.12L24.5514 110.484L29.3244 105.711ZM18.2815 65.55C22.0094 65.55 25.0315 68.572 25.0315 72.3C25.0315 75.7617 22.4257 78.6147 19.0687 79.0046L18.2815 79.05H11.5315C7.8036 79.05 4.78149 76.028 4.78149 72.3C4.78149 68.8383 7.38729 65.9853 10.7443 65.5954L11.5315 65.55H18.2815ZM133.031 65.55C136.76 65.55 139.781 68.572 139.781 72.3C139.781 76.028 136.76 79.05 133.031 79.05H126.281C122.553 79.05 119.532 76.028 119.532 72.3C119.532 68.572 122.553 65.55 126.281 65.55H133.031ZM24.5516 24.5699C26.9849 22.1367 30.8137 21.9495 33.4617 24.0084L34.0976 24.5699L38.8705 29.3429C41.5066 31.9789 41.5066 36.2528 38.8705 38.8889C36.4372 41.3221 32.6085 41.5093 29.9605 39.4504L29.3246 38.8889L24.5516 34.1159C21.9156 31.4799 21.9156 27.206 24.5516 24.5699ZM120.011 24.5701C122.647 27.2061 122.647 31.48 120.011 34.116L115.239 38.889C112.602 41.525 108.329 41.525 105.693 38.889C103.056 36.2529 103.056 31.9791 105.693 29.343L110.466 24.5701C113.101 21.934 117.375 21.934 120.011 24.5701ZM72.2815 4.8C76.0095 4.8 79.0315 7.82211 79.0315 11.55V18.3C79.0315 22.0279 76.0095 25.05 72.2815 25.05C68.5535 25.05 65.5315 22.0279 65.5315 18.3V11.55C65.5315 7.82211 68.5535 4.8 72.2815 4.8Z" fill="url(#paint1_linear_705_246)"/>
</g>
<defs>
<radialGradient id="paint0_radial_705_246" cx="0" cy="0" r="1" gradientUnits="userSpaceOnUse" gradientTransform="translate(44.1565 41.925) rotate(43.0203) scale(93.8576)">
<stop offset="0.193671" stop-color="#FFE475"/>
<stop offset="0.529275" stop-color="#FFB029"/>
<stop offset="0.780467" stop-color="#FF9100"/>
</radialGradient>
<linearGradient id="paint1_linear_705_246" x1="3.93774" y1="3.95626" x2="140.625" y2="140.644" gradientUnits="userSpaceOnUse">
<stop offset="0.166667" stop-color="#FFE475"/>
<stop offset="0.798611" stop-color="#FFBF29"/>
</linearGradient>
<clipPath id="clip0_705_246">
<rect width="144" height="144" fill="white" transform="translate(0.281494 0.300003)"/>
</clipPath>
</defs>
</svg>
