<svg width="59" height="133" viewBox="0 0 59 133" fill="none" xmlns="http://www.w3.org/2000/svg">
<path d="M0 17.28C0 11.2314 0 8.20715 1.17713 5.8969C2.21256 3.86475 3.86475 2.21256 5.8969 1.17713C8.20715 0 11.2314 0 17.28 0H41.72C47.7686 0 50.7929 0 53.1031 1.17713C55.1352 2.21256 56.7874 3.86475 57.8229 5.8969C59 8.20715 59 11.2314 59 17.28V115.72C59 121.769 59 124.793 57.8229 127.103C56.7874 129.135 55.1352 130.787 53.1031 131.823C50.7929 133 47.7686 133 41.72 133H17.28C11.2314 133 8.20715 133 5.8969 131.823C3.86475 130.787 2.21256 129.135 1.17713 127.103C0 124.793 0 121.769 0 115.72V17.28Z" fill="black" fill-opacity="0.2"/>
</svg>
